<svg id="visual" viewBox="0 0 900 600" width="900" height="600" xmlns="http://www.w3.org/2000/svg" xmlns:xlink="http://www.w3.org/1999/xlink" version="1.1"><rect x="0" y="0" width="900" height="600" fill="#001220"></rect><path d="M0 404L21.5 409.3C43 414.7 86 425.3 128.8 422.8C171.7 420.3 214.3 404.7 257.2 405.7C300 406.7 343 424.3 385.8 430.5C428.7 436.7 471.3 431.3 514.2 422C557 412.7 600 399.3 642.8 400.5C685.7 401.7 728.3 417.3 771.2 415.3C814 413.3 857 393.7 878.5 383.8L900 374L900 601L878.5 601C857 601 814 601 771.2 601C728.3 601 685.7 601 642.8 601C600 601 557 601 514.2 601C471.3 601 428.7 601 385.8 601C343 601 300 601 257.2 601C214.3 601 171.7 601 128.8 601C86 601 43 601 21.5 601L0 601Z" fill="#fa7268"></path><path d="M0 450L21.5 442.8C43 435.7 86 421.3 128.8 420.8C171.7 420.3 214.3 433.7 257.2 443C300 452.3 343 457.7 385.8 457.5C428.7 457.3 471.3 451.7 514.2 448.8C557 446 600 446 642.8 445.7C685.7 445.3 728.3 444.7 771.2 444C814 443.3 857 442.7 878.5 442.3L900 442L900 601L878.5 601C857 601 814 601 771.2 601C728.3 601 685.7 601 642.8 601C600 601 557 601 514.2 601C471.3 601 428.7 601 385.8 601C343 601 300 601 257.2 601C214.3 601 171.7 601 128.8 601C86 601 43 601 21.5 601L0 601Z" fill="#ef5f67"></path><path d="M0 494L21.5 488.2C43 482.3 86 470.7 128.8 462.2C171.7 453.7 214.3 448.3 257.2 446.5C300 444.7 343 446.3 385.8 454C428.7 461.7 471.3 475.3 514.2 482.8C557 490.3 600 491.7 642.8 489.8C685.7 488 728.3 483 771.2 478.7C814 474.3 857 470.7 878.5 468.8L900 467L900 601L878.5 601C857 601 814 601 771.2 601C728.3 601 685.7 601 642.8 601C600 601 557 601 514.2 601C471.3 601 428.7 601 385.8 601C343 601 300 601 257.2 601C214.3 601 171.7 601 128.8 601C86 601 43 601 21.5 601L0 601Z" fill="#e34c67"></path><path d="M0 509L21.5 513.8C43 518.7 86 528.3 128.8 525C171.7 521.7 214.3 505.3 257.2 503.8C300 502.3 343 515.7 385.8 524.2C428.7 532.7 471.3 536.3 514.2 535C557 533.7 600 527.3 642.8 526.8C685.7 526.3 728.3 531.7 771.2 533.3C814 535 857 533 878.5 532L900 531L900 601L878.5 601C857 601 814 601 771.2 601C728.3 601 685.7 601 642.8 601C600 601 557 601 514.2 601C471.3 601 428.7 601 385.8 601C343 601 300 601 257.2 601C214.3 601 171.7 601 128.8 601C86 601 43 601 21.5 601L0 601Z" fill="#d53867"></path><path d="M0 572L21.5 564.3C43 556.7 86 541.3 128.8 537.3C171.7 533.3 214.3 540.7 257.2 546C300 551.3 343 554.7 385.8 559C428.7 563.3 471.3 568.7 514.2 563.2C557 557.7 600 541.3 642.8 535.3C685.7 529.3 728.3 533.7 771.2 535C814 536.3 857 534.7 878.5 533.8L900 533L900 601L878.5 601C857 601 814 601 771.2 601C728.3 601 685.7 601 642.8 601C600 601 557 601 514.2 601C471.3 601 428.7 601 385.8 601C343 601 300 601 257.2 601C214.3 601 171.7 601 128.8 601C86 601 43 601 21.5 601L0 601Z" fill="#c62368"></path></svg>