<svg id="visual" viewBox="0 0 900 600" width="900" height="600" xmlns="http://www.w3.org/2000/svg" xmlns:xlink="http://www.w3.org/1999/xlink" version="1.1"><rect x="0" y="0" width="900" height="600" fill="#629fe9"></rect><path d="M0 342L21.5 336.8C43 331.7 86 321.3 128.8 318.2C171.7 315 214.3 319 257.2 301.3C300 283.7 343 244.3 385.8 241.8C428.7 239.3 471.3 273.7 514.2 273.3C557 273 600 238 642.8 231C685.7 224 728.3 245 771.2 254.2C814 263.3 857 260.7 878.5 259.3L900 258L900 601L878.5 601C857 601 814 601 771.2 601C728.3 601 685.7 601 642.8 601C600 601 557 601 514.2 601C471.3 601 428.7 601 385.8 601C343 601 300 601 257.2 601C214.3 601 171.7 601 128.8 601C86 601 43 601 21.5 601L0 601Z" fill="#faab69"></path><path d="M0 322L21.5 320.5C43 319 86 316 128.8 313C171.7 310 214.3 307 257.2 319C300 331 343 358 385.8 371C428.7 384 471.3 383 514.2 364.8C557 346.7 600 311.3 642.8 308.8C685.7 306.3 728.3 336.7 771.2 343.7C814 350.7 857 334.3 878.5 326.2L900 318L900 601L878.5 601C857 601 814 601 771.2 601C728.3 601 685.7 601 642.8 601C600 601 557 601 514.2 601C471.3 601 428.7 601 385.8 601C343 601 300 601 257.2 601C214.3 601 171.7 601 128.8 601C86 601 43 601 21.5 601L0 601Z" fill="#ff8969"></path><path d="M0 345L21.5 352.8C43 360.7 86 376.3 128.8 380.2C171.7 384 214.3 376 257.2 381.7C300 387.3 343 406.7 385.8 420.2C428.7 433.7 471.3 441.3 514.2 435C557 428.7 600 408.3 642.8 408.2C685.7 408 728.3 428 771.2 432C814 436 857 424 878.5 418L900 412L900 601L878.5 601C857 601 814 601 771.2 601C728.3 601 685.7 601 642.8 601C600 601 557 601 514.2 601C471.3 601 428.7 601 385.8 601C343 601 300 601 257.2 601C214.3 601 171.7 601 128.8 601C86 601 43 601 21.5 601L0 601Z" fill="#ff6677"></path><path d="M0 498L21.5 494.2C43 490.3 86 482.7 128.8 482.3C171.7 482 214.3 489 257.2 487.2C300 485.3 343 474.7 385.8 471.5C428.7 468.3 471.3 472.7 514.2 464.7C557 456.7 600 436.3 642.8 438C685.7 439.7 728.3 463.3 771.2 464.5C814 465.7 857 444.3 878.5 433.7L900 423L900 601L878.5 601C857 601 814 601 771.2 601C728.3 601 685.7 601 642.8 601C600 601 557 601 514.2 601C471.3 601 428.7 601 385.8 601C343 601 300 601 257.2 601C214.3 601 171.7 601 128.8 601C86 601 43 601 21.5 601L0 601Z" fill="#fc4392"></path><path d="M0 542L21.5 532.5C43 523 86 504 128.8 494.3C171.7 484.7 214.3 484.3 257.2 486.3C300 488.3 343 492.7 385.8 496.2C428.7 499.7 471.3 502.3 514.2 500.3C557 498.3 600 491.7 642.8 490.3C685.7 489 728.3 493 771.2 503C814 513 857 529 878.5 537L900 545L900 601L878.5 601C857 601 814 601 771.2 601C728.3 601 685.7 601 642.8 601C600 601 557 601 514.2 601C471.3 601 428.7 601 385.8 601C343 601 300 601 257.2 601C214.3 601 171.7 601 128.8 601C86 601 43 601 21.5 601L0 601Z" fill="#e62db9"></path></svg>